<svg width="86" height="86" viewBox="0 0 86 86" fill="none" xmlns="http://www.w3.org/2000/svg">
<path d="M50.8576 43.6278H39.4577V52.9501H52.7003V55.7865H35.9889V29.4818H52.5197V32.3363H39.4577V40.7914H50.8576V43.6278Z" fill="white"/>
<path d="M9.67224 29.2185L29.1285 9.67224H56.6013L76.3278 29.2185V56.6914L56.6013 76.3278H29.1285L9.67224 56.6914V29.2185Z" stroke="white"/>
<path d="M18.5975 19.1594L42.5644 8.85478L66.6824 18.534L77.1135 42.6434L67.4343 66.7615L43.1985 77.05L19.0804 67.3708L8.91828 43.2775L18.5975 19.1594Z" stroke="white" stroke-width="2"/>
<path d="M22.8712 22.9899L42.5978 14.7097L62.3067 22.818L70.6895 42.6624L62.5813 62.3713L42.6342 70.6363L22.9253 62.5281L14.7629 42.6988L22.8712 22.9899Z" stroke="white" stroke-width="2"/>
</svg>
